<svg width="360" height="56" viewBox="0 0 360 56" fill="none" xmlns="http://www.w3.org/2000/svg">
<rect width="360" height="56" rx="28" fill="#191D23"/>
<path d="M105.306 26.0415H104.5V26H95.5V30H101.152C100.327 32.3285 98.1115 34 95.5 34C92.1865 34 89.5 31.3135 89.5 28C89.5 24.6865 92.1865 22 95.5 22C97.0295 22 98.421 22.577 99.4805 23.5195L102.309 20.691C100.523 19.0265 98.134 18 95.5 18C89.9775 18 85.5 22.4775 85.5 28C85.5 33.5225 89.9775 38 95.5 38C101.023 38 105.5 33.5225 105.5 28C105.5 27.3295 105.431 26.675 105.306 26.0415Z" fill="#FBC02D"/>
<path d="M86.6531 23.3455L89.9386 25.755C90.8276 23.554 92.9806 22 95.5001 22C97.0296 22 98.4211 22.577 99.4806 23.5195L102.309 20.691C100.523 19.0265 98.1341 18 95.5001 18C91.6591 18 88.3281 20.1685 86.6531 23.3455Z" fill="#E53935"/>
<path d="M95.4999 38C98.0829 38 100.43 37.0115 102.204 35.404L99.1094 32.785C98.1054 33.5455 96.8574 34 95.4999 34C92.8989 34 90.6904 32.3415 89.8584 30.027L86.5974 32.5395C88.2524 35.778 91.6134 38 95.4999 38Z" fill="#4CAF50"/>
<path d="M105.306 26.0415L105.298 26H104.5H95.5V30H101.152C100.756 31.1185 100.036 32.083 99.108 32.7855C99.1085 32.785 99.109 32.785 99.1095 32.7845L102.205 35.4035C101.986 35.6025 105.5 33 105.5 28C105.5 27.3295 105.431 26.675 105.306 26.0415Z" fill="#1565C0"/>
<path d="M120.46 34.112C119.681 34.112 118.977 33.9787 118.348 33.712C117.729 33.4453 117.239 33.0613 116.876 32.56C116.513 32.0587 116.327 31.4667 116.316 30.784H118.716C118.748 31.2427 118.908 31.6053 119.196 31.872C119.495 32.1387 119.9 32.272 120.412 32.272C120.935 32.272 121.345 32.1493 121.644 31.904C121.943 31.648 122.092 31.3173 122.092 30.912C122.092 30.5813 121.991 30.3093 121.788 30.096C121.585 29.8827 121.329 29.7173 121.02 29.6C120.721 29.472 120.305 29.3333 119.772 29.184C119.047 28.9707 118.455 28.7627 117.996 28.56C117.548 28.3467 117.159 28.032 116.828 27.616C116.508 27.1893 116.348 26.624 116.348 25.92C116.348 25.2587 116.513 24.6827 116.844 24.192C117.175 23.7013 117.639 23.328 118.236 23.072C118.833 22.8053 119.516 22.672 120.284 22.672C121.436 22.672 122.369 22.9547 123.084 23.52C123.809 24.0747 124.209 24.8533 124.284 25.856H121.82C121.799 25.472 121.633 25.1573 121.324 24.912C121.025 24.656 120.625 24.528 120.124 24.528C119.687 24.528 119.335 24.64 119.068 24.864C118.812 25.088 118.684 25.4133 118.684 25.84C118.684 26.1387 118.78 26.3893 118.972 26.592C119.175 26.784 119.42 26.944 119.708 27.072C120.007 27.1893 120.423 27.328 120.956 27.488C121.681 27.7013 122.273 27.9147 122.732 28.128C123.191 28.3413 123.585 28.6613 123.916 29.088C124.247 29.5147 124.412 30.0747 124.412 30.768C124.412 31.3653 124.257 31.92 123.948 32.432C123.639 32.944 123.185 33.3547 122.588 33.664C121.991 33.9627 121.281 34.112 120.46 34.112ZM127.49 24.08C127.095 24.08 126.765 23.9573 126.498 23.712C126.242 23.456 126.114 23.1413 126.114 22.768C126.114 22.3947 126.242 22.0853 126.498 21.84C126.765 21.584 127.095 21.456 127.49 21.456C127.885 21.456 128.21 21.584 128.466 21.84C128.733 22.0853 128.866 22.3947 128.866 22.768C128.866 23.1413 128.733 23.456 128.466 23.712C128.21 23.9573 127.885 24.08 127.49 24.08ZM128.594 25.136V34H126.354V25.136H128.594ZM134.279 24.992C134.94 24.992 135.522 25.1253 136.023 25.392C136.524 25.648 136.919 25.984 137.207 26.4V25.136H139.463V34.064C139.463 34.8853 139.298 35.616 138.967 36.256C138.636 36.9067 138.14 37.4187 137.479 37.792C136.818 38.176 136.018 38.368 135.079 38.368C133.82 38.368 132.786 38.0747 131.975 37.488C131.175 36.9013 130.722 36.1013 130.615 35.088H132.839C132.956 35.4933 133.207 35.8133 133.591 36.048C133.986 36.2933 134.46 36.416 135.015 36.416C135.666 36.416 136.194 36.2187 136.599 35.824C137.004 35.44 137.207 34.8533 137.207 34.064V32.688C136.919 33.104 136.519 33.4507 136.007 33.728C135.506 34.0053 134.93 34.144 134.279 34.144C133.532 34.144 132.85 33.952 132.231 33.568C131.612 33.184 131.122 32.6453 130.759 31.952C130.407 31.248 130.231 30.4427 130.231 29.536C130.231 28.64 130.407 27.8453 130.759 27.152C131.122 26.4587 131.607 25.9253 132.215 25.552C132.834 25.1787 133.522 24.992 134.279 24.992ZM137.207 29.568C137.207 29.024 137.1 28.56 136.887 28.176C136.674 27.7813 136.386 27.4827 136.023 27.28C135.66 27.0667 135.271 26.96 134.855 26.96C134.439 26.96 134.055 27.0613 133.703 27.264C133.351 27.4667 133.063 27.7653 132.839 28.16C132.626 28.544 132.519 29.0027 132.519 29.536C132.519 30.0693 132.626 30.5387 132.839 30.944C133.063 31.3387 133.351 31.6427 133.703 31.856C134.066 32.0693 134.45 32.176 134.855 32.176C135.271 32.176 135.66 32.0747 136.023 31.872C136.386 31.6587 136.674 31.36 136.887 30.976C137.1 30.5813 137.207 30.112 137.207 29.568ZM146.563 25.008C147.619 25.008 148.472 25.344 149.123 26.016C149.774 26.6773 150.099 27.6053 150.099 28.8V34H147.859V29.104C147.859 28.4 147.683 27.8613 147.331 27.488C146.979 27.104 146.499 26.912 145.891 26.912C145.272 26.912 144.782 27.104 144.419 27.488C144.067 27.8613 143.891 28.4 143.891 29.104V34H141.651V25.136H143.891V26.24C144.19 25.856 144.568 25.5573 145.027 25.344C145.496 25.12 146.008 25.008 146.563 25.008ZM158.25 22.832V29.744C158.25 30.5013 158.447 31.0827 158.842 31.488C159.236 31.8827 159.791 32.08 160.506 32.08C161.231 32.08 161.791 31.8827 162.186 31.488C162.58 31.0827 162.778 30.5013 162.778 29.744V22.832H165.034V29.728C165.034 30.6773 164.826 31.4827 164.41 32.144C164.004 32.7947 163.455 33.2853 162.762 33.616C162.079 33.9467 161.316 34.112 160.474 34.112C159.642 34.112 158.884 33.9467 158.202 33.616C157.53 33.2853 156.996 32.7947 156.602 32.144C156.207 31.4827 156.01 30.6773 156.01 29.728V22.832H158.25ZM169.438 26.416C169.726 26.0107 170.12 25.6747 170.622 25.408C171.134 25.1307 171.715 24.992 172.366 24.992C173.123 24.992 173.806 25.1787 174.414 25.552C175.032 25.9253 175.518 26.4587 175.87 27.152C176.232 27.8347 176.414 28.6293 176.414 29.536C176.414 30.4427 176.232 31.248 175.87 31.952C175.518 32.6453 175.032 33.184 174.414 33.568C173.806 33.952 173.123 34.144 172.366 34.144C171.715 34.144 171.139 34.0107 170.638 33.744C170.147 33.4773 169.747 33.1413 169.438 32.736V38.224H167.198V25.136H169.438V26.416ZM174.126 29.536C174.126 29.0027 174.014 28.544 173.79 28.16C173.576 27.7653 173.288 27.4667 172.926 27.264C172.574 27.0613 172.19 26.96 171.774 26.96C171.368 26.96 170.984 27.0667 170.622 27.28C170.27 27.4827 169.982 27.7813 169.758 28.176C169.544 28.5707 169.438 29.0347 169.438 29.568C169.438 30.1013 169.544 30.5653 169.758 30.96C169.982 31.3547 170.27 31.6587 170.622 31.872C170.984 32.0747 171.368 32.176 171.774 32.176C172.19 32.176 172.574 32.0693 172.926 31.856C173.288 31.6427 173.576 31.3387 173.79 30.944C174.014 30.5493 174.126 30.08 174.126 29.536ZM194.142 25.136L191.55 34H189.134L187.518 27.808L185.902 34H183.47L180.862 25.136H183.134L184.702 31.888L186.398 25.136H188.766L190.43 31.872L191.998 25.136H194.142ZM196.49 24.08C196.095 24.08 195.765 23.9573 195.498 23.712C195.242 23.456 195.114 23.1413 195.114 22.768C195.114 22.3947 195.242 22.0853 195.498 21.84C195.765 21.584 196.095 21.456 196.49 21.456C196.885 21.456 197.21 21.584 197.466 21.84C197.733 22.0853 197.866 22.3947 197.866 22.768C197.866 23.1413 197.733 23.456 197.466 23.712C197.21 23.9573 196.885 24.08 196.49 24.08ZM197.594 25.136V34H195.354V25.136H197.594ZM202.415 26.976V31.264C202.415 31.5627 202.484 31.7813 202.623 31.92C202.772 32.048 203.018 32.112 203.359 32.112H204.399V34H202.991C201.103 34 200.159 33.0827 200.159 31.248V26.976H199.103V25.136H200.159V22.944H202.415V25.136H204.399V26.976H202.415ZM211.002 25.008C211.674 25.008 212.272 25.1573 212.794 25.456C213.317 25.744 213.722 26.176 214.01 26.752C214.309 27.3173 214.458 28 214.458 28.8V34H212.218V29.104C212.218 28.4 212.042 27.8613 211.69 27.488C211.338 27.104 210.858 26.912 210.25 26.912C209.632 26.912 209.141 27.104 208.778 27.488C208.426 27.8613 208.25 28.4 208.25 29.104V34H206.01V22.16H208.25V26.24C208.538 25.856 208.922 25.5573 209.402 25.344C209.882 25.12 210.416 25.008 211.002 25.008ZM223.873 24.992C224.534 24.992 225.116 25.1253 225.617 25.392C226.118 25.648 226.513 25.984 226.801 26.4V25.136H229.057V34.064C229.057 34.8853 228.892 35.616 228.561 36.256C228.23 36.9067 227.734 37.4187 227.073 37.792C226.412 38.176 225.612 38.368 224.673 38.368C223.414 38.368 222.38 38.0747 221.569 37.488C220.769 36.9013 220.316 36.1013 220.209 35.088H222.433C222.55 35.4933 222.801 35.8133 223.185 36.048C223.58 36.2933 224.054 36.416 224.609 36.416C225.26 36.416 225.788 36.2187 226.193 35.824C226.598 35.44 226.801 34.8533 226.801 34.064V32.688C226.513 33.104 226.113 33.4507 225.601 33.728C225.1 34.0053 224.524 34.144 223.873 34.144C223.126 34.144 222.444 33.952 221.825 33.568C221.206 33.184 220.716 32.6453 220.353 31.952C220.001 31.248 219.825 30.4427 219.825 29.536C219.825 28.64 220.001 27.8453 220.353 27.152C220.716 26.4587 221.201 25.9253 221.809 25.552C222.428 25.1787 223.116 24.992 223.873 24.992ZM226.801 29.568C226.801 29.024 226.694 28.56 226.481 28.176C226.268 27.7813 225.98 27.4827 225.617 27.28C225.254 27.0667 224.865 26.96 224.449 26.96C224.033 26.96 223.649 27.0613 223.297 27.264C222.945 27.4667 222.657 27.7653 222.433 28.16C222.22 28.544 222.113 29.0027 222.113 29.536C222.113 30.0693 222.22 30.5387 222.433 30.944C222.657 31.3387 222.945 31.6427 223.297 31.856C223.66 32.0693 224.044 32.176 224.449 32.176C224.865 32.176 225.254 32.0747 225.617 31.872C225.98 31.6587 226.268 31.36 226.481 30.976C226.694 30.5813 226.801 30.112 226.801 29.568ZM235.181 34.144C234.327 34.144 233.559 33.9573 232.877 33.584C232.194 33.2 231.655 32.6613 231.261 31.968C230.877 31.2747 230.685 30.4747 230.685 29.568C230.685 28.6613 230.882 27.8613 231.277 27.168C231.682 26.4747 232.231 25.9413 232.925 25.568C233.618 25.184 234.391 24.992 235.245 24.992C236.098 24.992 236.871 25.184 237.565 25.568C238.258 25.9413 238.802 26.4747 239.197 27.168C239.602 27.8613 239.805 28.6613 239.805 29.568C239.805 30.4747 239.597 31.2747 239.181 31.968C238.775 32.6613 238.221 33.2 237.517 33.584C236.823 33.9573 236.045 34.144 235.181 34.144ZM235.181 32.192C235.586 32.192 235.965 32.096 236.317 31.904C236.679 31.7013 236.967 31.4027 237.181 31.008C237.394 30.6133 237.501 30.1333 237.501 29.568C237.501 28.7253 237.277 28.08 236.829 27.632C236.391 27.1733 235.853 26.944 235.213 26.944C234.573 26.944 234.034 27.1733 233.597 27.632C233.17 28.08 232.957 28.7253 232.957 29.568C232.957 30.4107 233.165 31.0613 233.581 31.52C234.007 31.968 234.541 32.192 235.181 32.192ZM245.384 34.144C244.53 34.144 243.762 33.9573 243.08 33.584C242.397 33.2 241.858 32.6613 241.464 31.968C241.08 31.2747 240.888 30.4747 240.888 29.568C240.888 28.6613 241.085 27.8613 241.48 27.168C241.885 26.4747 242.434 25.9413 243.128 25.568C243.821 25.184 244.594 24.992 245.448 24.992C246.301 24.992 247.074 25.184 247.768 25.568C248.461 25.9413 249.005 26.4747 249.4 27.168C249.805 27.8613 250.008 28.6613 250.008 29.568C250.008 30.4747 249.8 31.2747 249.384 31.968C248.978 32.6613 248.424 33.2 247.72 33.584C247.026 33.9573 246.248 34.144 245.384 34.144ZM245.384 32.192C245.789 32.192 246.168 32.096 246.52 31.904C246.882 31.7013 247.17 31.4027 247.384 31.008C247.597 30.6133 247.704 30.1333 247.704 29.568C247.704 28.7253 247.48 28.08 247.032 27.632C246.594 27.1733 246.056 26.944 245.416 26.944C244.776 26.944 244.237 27.1733 243.8 27.632C243.373 28.08 243.16 28.7253 243.16 29.568C243.16 30.4107 243.368 31.0613 243.784 31.52C244.21 31.968 244.744 32.192 245.384 32.192ZM255.123 24.992C255.784 24.992 256.366 25.1253 256.867 25.392C257.368 25.648 257.763 25.984 258.051 26.4V25.136H260.307V34.064C260.307 34.8853 260.142 35.616 259.811 36.256C259.48 36.9067 258.984 37.4187 258.323 37.792C257.662 38.176 256.862 38.368 255.923 38.368C254.664 38.368 253.63 38.0747 252.819 37.488C252.019 36.9013 251.566 36.1013 251.459 35.088H253.683C253.8 35.4933 254.051 35.8133 254.435 36.048C254.83 36.2933 255.304 36.416 255.859 36.416C256.51 36.416 257.038 36.2187 257.443 35.824C257.848 35.44 258.051 34.8533 258.051 34.064V32.688C257.763 33.104 257.363 33.4507 256.851 33.728C256.35 34.0053 255.774 34.144 255.123 34.144C254.376 34.144 253.694 33.952 253.075 33.568C252.456 33.184 251.966 32.6453 251.603 31.952C251.251 31.248 251.075 30.4427 251.075 29.536C251.075 28.64 251.251 27.8453 251.603 27.152C251.966 26.4587 252.451 25.9253 253.059 25.552C253.678 25.1787 254.366 24.992 255.123 24.992ZM258.051 29.568C258.051 29.024 257.944 28.56 257.731 28.176C257.518 27.7813 257.23 27.4827 256.867 27.28C256.504 27.0667 256.115 26.96 255.699 26.96C255.283 26.96 254.899 27.0613 254.547 27.264C254.195 27.4667 253.907 27.7653 253.683 28.16C253.47 28.544 253.363 29.0027 253.363 29.536C253.363 30.0693 253.47 30.5387 253.683 30.944C253.907 31.3387 254.195 31.6427 254.547 31.856C254.91 32.0693 255.294 32.176 255.699 32.176C256.115 32.176 256.504 32.0747 256.867 31.872C257.23 31.6587 257.518 31.36 257.731 30.976C257.944 30.5813 258.051 30.112 258.051 29.568ZM264.735 22.16V34H262.495V22.16H264.735ZM275.188 29.376C275.188 29.696 275.166 29.984 275.124 30.24H268.644C268.697 30.88 268.921 31.3813 269.316 31.744C269.71 32.1067 270.196 32.288 270.772 32.288C271.604 32.288 272.196 31.9307 272.548 31.216H274.964C274.708 32.0693 274.217 32.7733 273.492 33.328C272.766 33.872 271.876 34.144 270.82 34.144C269.966 34.144 269.198 33.9573 268.516 33.584C267.844 33.2 267.316 32.6613 266.932 31.968C266.558 31.2747 266.372 30.4747 266.372 29.568C266.372 28.6507 266.558 27.8453 266.932 27.152C267.305 26.4587 267.828 25.9253 268.5 25.552C269.172 25.1787 269.945 24.992 270.82 24.992C271.662 24.992 272.414 25.1733 273.076 25.536C273.748 25.8987 274.265 26.416 274.628 27.088C275.001 27.7493 275.188 28.512 275.188 29.376ZM272.868 28.736C272.857 28.16 272.649 27.7013 272.244 27.36C271.838 27.008 271.342 26.832 270.756 26.832C270.201 26.832 269.732 27.0027 269.348 27.344C268.974 27.6747 268.745 28.1387 268.66 28.736H272.868Z" fill="white"/>
</svg>
