<svg width="360" height="48" viewBox="0 0 360 48" fill="none" xmlns="http://www.w3.org/2000/svg">
<rect width="360" height="48" rx="24" fill="#6EE7B7"/>
<path d="M153.96 30.112C153.181 30.112 152.477 29.9787 151.848 29.712C151.229 29.4453 150.739 29.0613 150.376 28.56C150.013 28.0587 149.827 27.4667 149.816 26.784H152.216C152.248 27.2427 152.408 27.6053 152.696 27.872C152.995 28.1387 153.4 28.272 153.912 28.272C154.435 28.272 154.845 28.1493 155.144 27.904C155.443 27.648 155.592 27.3173 155.592 26.912C155.592 26.5813 155.491 26.3093 155.288 26.096C155.085 25.8827 154.829 25.7173 154.52 25.6C154.221 25.472 153.805 25.3333 153.272 25.184C152.547 24.9707 151.955 24.7627 151.496 24.56C151.048 24.3467 150.659 24.032 150.328 23.616C150.008 23.1893 149.848 22.624 149.848 21.92C149.848 21.2587 150.013 20.6827 150.344 20.192C150.675 19.7013 151.139 19.328 151.736 19.072C152.333 18.8053 153.016 18.672 153.784 18.672C154.936 18.672 155.869 18.9547 156.584 19.52C157.309 20.0747 157.709 20.8533 157.784 21.856H155.32C155.299 21.472 155.133 21.1573 154.824 20.912C154.525 20.656 154.125 20.528 153.624 20.528C153.187 20.528 152.835 20.64 152.568 20.864C152.312 21.088 152.184 21.4133 152.184 21.84C152.184 22.1387 152.28 22.3893 152.472 22.592C152.675 22.784 152.92 22.944 153.208 23.072C153.507 23.1893 153.923 23.328 154.456 23.488C155.181 23.7013 155.773 23.9147 156.232 24.128C156.691 24.3413 157.085 24.6613 157.416 25.088C157.747 25.5147 157.912 26.0747 157.912 26.768C157.912 27.3653 157.757 27.92 157.448 28.432C157.139 28.944 156.685 29.3547 156.088 29.664C155.491 29.9627 154.781 30.112 153.96 30.112ZM160.99 20.08C160.595 20.08 160.265 19.9573 159.998 19.712C159.742 19.456 159.614 19.1413 159.614 18.768C159.614 18.3947 159.742 18.0853 159.998 17.84C160.265 17.584 160.595 17.456 160.99 17.456C161.385 17.456 161.71 17.584 161.966 17.84C162.233 18.0853 162.366 18.3947 162.366 18.768C162.366 19.1413 162.233 19.456 161.966 19.712C161.71 19.9573 161.385 20.08 160.99 20.08ZM162.094 21.136V30H159.854V21.136H162.094ZM167.779 20.992C168.44 20.992 169.022 21.1253 169.523 21.392C170.024 21.648 170.419 21.984 170.707 22.4V21.136H172.963V30.064C172.963 30.8853 172.798 31.616 172.467 32.256C172.136 32.9067 171.64 33.4187 170.979 33.792C170.318 34.176 169.518 34.368 168.579 34.368C167.32 34.368 166.286 34.0747 165.475 33.488C164.675 32.9013 164.222 32.1013 164.115 31.088H166.339C166.456 31.4933 166.707 31.8133 167.091 32.048C167.486 32.2933 167.96 32.416 168.515 32.416C169.166 32.416 169.694 32.2187 170.099 31.824C170.504 31.44 170.707 30.8533 170.707 30.064V28.688C170.419 29.104 170.019 29.4507 169.507 29.728C169.006 30.0053 168.43 30.144 167.779 30.144C167.032 30.144 166.35 29.952 165.731 29.568C165.112 29.184 164.622 28.6453 164.259 27.952C163.907 27.248 163.731 26.4427 163.731 25.536C163.731 24.64 163.907 23.8453 164.259 23.152C164.622 22.4587 165.107 21.9253 165.715 21.552C166.334 21.1787 167.022 20.992 167.779 20.992ZM170.707 25.568C170.707 25.024 170.6 24.56 170.387 24.176C170.174 23.7813 169.886 23.4827 169.523 23.28C169.16 23.0667 168.771 22.96 168.355 22.96C167.939 22.96 167.555 23.0613 167.203 23.264C166.851 23.4667 166.563 23.7653 166.339 24.16C166.126 24.544 166.019 25.0027 166.019 25.536C166.019 26.0693 166.126 26.5387 166.339 26.944C166.563 27.3387 166.851 27.6427 167.203 27.856C167.566 28.0693 167.95 28.176 168.355 28.176C168.771 28.176 169.16 28.0747 169.523 27.872C169.886 27.6587 170.174 27.36 170.387 26.976C170.6 26.5813 170.707 26.112 170.707 25.568ZM180.063 21.008C181.119 21.008 181.972 21.344 182.623 22.016C183.274 22.6773 183.599 23.6053 183.599 24.8V30H181.359V25.104C181.359 24.4 181.183 23.8613 180.831 23.488C180.479 23.104 179.999 22.912 179.391 22.912C178.772 22.912 178.282 23.104 177.919 23.488C177.567 23.8613 177.391 24.4 177.391 25.104V30H175.151V21.136H177.391V22.24C177.69 21.856 178.068 21.5573 178.527 21.344C178.996 21.12 179.508 21.008 180.063 21.008ZM191.75 18.832V25.744C191.75 26.5013 191.947 27.0827 192.342 27.488C192.736 27.8827 193.291 28.08 194.006 28.08C194.731 28.08 195.291 27.8827 195.686 27.488C196.08 27.0827 196.278 26.5013 196.278 25.744V18.832H198.534V25.728C198.534 26.6773 198.326 27.4827 197.91 28.144C197.504 28.7947 196.955 29.2853 196.262 29.616C195.579 29.9467 194.816 30.112 193.974 30.112C193.142 30.112 192.384 29.9467 191.702 29.616C191.03 29.2853 190.496 28.7947 190.102 28.144C189.707 27.4827 189.51 26.6773 189.51 25.728V18.832H191.75ZM202.938 22.416C203.226 22.0107 203.62 21.6747 204.122 21.408C204.634 21.1307 205.215 20.992 205.866 20.992C206.623 20.992 207.306 21.1787 207.914 21.552C208.532 21.9253 209.018 22.4587 209.37 23.152C209.732 23.8347 209.914 24.6293 209.914 25.536C209.914 26.4427 209.732 27.248 209.37 27.952C209.018 28.6453 208.532 29.184 207.914 29.568C207.306 29.952 206.623 30.144 205.866 30.144C205.215 30.144 204.639 30.0107 204.138 29.744C203.647 29.4773 203.247 29.1413 202.938 28.736V34.224H200.698V21.136H202.938V22.416ZM207.626 25.536C207.626 25.0027 207.514 24.544 207.29 24.16C207.076 23.7653 206.788 23.4667 206.426 23.264C206.074 23.0613 205.69 22.96 205.274 22.96C204.868 22.96 204.484 23.0667 204.122 23.28C203.77 23.4827 203.482 23.7813 203.258 24.176C203.044 24.5707 202.938 25.0347 202.938 25.568C202.938 26.1013 203.044 26.5653 203.258 26.96C203.482 27.3547 203.77 27.6587 204.122 27.872C204.484 28.0747 204.868 28.176 205.274 28.176C205.69 28.176 206.074 28.0693 206.426 27.856C206.788 27.6427 207.076 27.3387 207.29 26.944C207.514 26.5493 207.626 26.08 207.626 25.536Z" fill="white"/>
</svg>
